<svg width="133" height="35" viewBox="0 0 133 35" fill="none" xmlns="http://www.w3.org/2000/svg">
<g id="planpal">
<path d="M5.90023 9.08052C6.4753 8.17594 7.2689 7.44533 8.28103 6.88867C9.29315 6.33201 10.4778 6.05368 11.835 6.05368C13.4222 6.05368 14.8598 6.45958 16.148 7.27137C17.4362 8.08317 18.4483 9.24288 19.1844 10.7505C19.9435 12.2581 20.323 14.0093 20.323 16.004C20.323 17.9987 19.9435 19.7614 19.1844 21.2922C18.4483 22.7999 17.4362 23.9712 16.148 24.8062C14.8598 25.618 13.4222 26.0239 11.835 26.0239C10.5008 26.0239 9.31616 25.7455 8.28103 25.1889C7.2689 24.6322 6.4753 23.9132 5.90023 23.0318V35H0V6.33201H5.90023V9.08052ZM14.3193 16.004C14.3193 14.5195 13.9052 13.3598 13.0771 12.5248C12.272 11.6667 11.2714 11.2376 10.0753 11.2376C8.90211 11.2376 7.90148 11.6667 7.07338 12.5248C6.26828 13.383 5.86573 14.5543 5.86573 16.0388C5.86573 17.5232 6.26828 18.6945 7.07338 19.5527C7.90148 20.4109 8.90211 20.84 10.0753 20.84C11.2484 20.84 12.249 20.4109 13.0771 19.5527C13.9052 18.6713 14.3193 17.4884 14.3193 16.004Z" fill="#9B7DFF"/>
<path d="M29.3187 0V25.7455H23.4184V0H29.3187Z" fill="#9B7DFF"/>
<path d="M32.4214 16.004C32.4214 14.0093 32.7894 12.2581 33.5255 10.7505C34.2846 9.24288 35.3082 8.08317 36.5964 7.27137C37.8845 6.45958 39.3222 6.05368 40.9094 6.05368C42.2666 6.05368 43.4512 6.33201 44.4634 6.88867C45.4985 7.44533 46.2921 8.17594 46.8442 9.08052V6.33201H52.7444V25.7455H46.8442V22.997C46.2691 23.9016 45.464 24.6322 44.4289 25.1889C43.4167 25.7455 42.2321 26.0239 40.8749 26.0239C39.3107 26.0239 37.8845 25.618 36.5964 24.8062C35.3082 23.9712 34.2846 22.7999 33.5255 21.2922C32.7894 19.7614 32.4214 17.9987 32.4214 16.004ZM46.8442 16.0388C46.8442 14.5543 46.4301 13.383 45.602 12.5248C44.7969 11.6667 43.8078 11.2376 42.6346 11.2376C41.4615 11.2376 40.4609 11.6667 39.6328 12.5248C38.8277 13.3598 38.4251 14.5195 38.4251 16.004C38.4251 17.4884 38.8277 18.6713 39.6328 19.5527C40.4609 20.4109 41.4615 20.84 42.6346 20.84C43.8078 20.84 44.7969 20.4109 45.602 19.5527C46.4301 18.6945 46.8442 17.5232 46.8442 16.0388Z" fill="#9B7DFF"/>
<path d="M68.7444 6.12326C70.9987 6.12326 72.7929 6.86547 74.1271 8.3499C75.4842 9.81113 76.1628 11.829 76.1628 14.4036V25.7455H70.2971V15.2038C70.2971 13.9049 69.9636 12.896 69.2965 12.1769C68.6294 11.4579 67.7323 11.0984 66.6051 11.0984C65.478 11.0984 64.5809 11.4579 63.9138 12.1769C63.2467 12.896 62.9132 13.9049 62.9132 15.2038V25.7455H57.0129V6.33201H62.9132V8.90656C63.5112 8.04838 64.3163 7.37574 65.3285 6.88867C66.3406 6.3784 67.4792 6.12326 68.7444 6.12326Z" fill="#9B7DFF"/>
<path d="M86.1631 9.08052C86.7382 8.17594 87.5318 7.44533 88.5439 6.88867C89.5561 6.33201 90.7407 6.05368 92.0979 6.05368C93.6851 6.05368 95.1227 6.45958 96.4109 7.27137C97.6991 8.08317 98.7112 9.24288 99.4473 10.7505C100.206 12.2581 100.586 14.0093 100.586 16.004C100.586 17.9987 100.206 19.7614 99.4473 21.2922C98.7112 22.7999 97.6991 23.9712 96.4109 24.8062C95.1227 25.618 93.6851 26.0239 92.0979 26.0239C90.7637 26.0239 89.5791 25.7455 88.5439 25.1889C87.5318 24.6322 86.7382 23.9132 86.1631 23.0318V35H80.2629V6.33201H86.1631V9.08052ZM94.5822 16.004C94.5822 14.5195 94.1681 13.3598 93.34 12.5248C92.5349 11.6667 91.5343 11.2376 90.3382 11.2376C89.165 11.2376 88.1644 11.6667 87.3363 12.5248C86.5312 13.383 86.1286 14.5543 86.1286 16.0388C86.1286 17.5232 86.5312 18.6945 87.3363 19.5527C88.1644 20.4109 89.165 20.84 90.3382 20.84C91.5113 20.84 92.5119 20.4109 93.34 19.5527C94.1681 18.6713 94.5822 17.4884 94.5822 16.004Z" fill="#9B7DFF"/>
<path d="M102.508 16.004C102.508 14.0093 102.876 12.2581 103.612 10.7505C104.371 9.24288 105.395 8.08317 106.683 7.27137C107.971 6.45958 109.409 6.05368 110.996 6.05368C112.353 6.05368 113.538 6.33201 114.55 6.88867C115.585 7.44533 116.379 8.17594 116.931 9.08052V6.33201H122.831V25.7455H116.931V22.997C116.356 23.9016 115.551 24.6322 114.516 25.1889C113.504 25.7455 112.319 26.0239 110.962 26.0239C109.398 26.0239 107.971 25.618 106.683 24.8062C105.395 23.9712 104.371 22.7999 103.612 21.2922C102.876 19.7614 102.508 17.9987 102.508 16.004ZM116.931 16.0388C116.931 14.5543 116.517 13.383 115.689 12.5248C114.884 11.6667 113.895 11.2376 112.721 11.2376C111.548 11.2376 110.548 11.6667 109.72 12.5248C108.914 13.3598 108.512 14.5195 108.512 16.004C108.512 17.4884 108.914 18.6713 109.72 19.5527C110.548 20.4109 111.548 20.84 112.721 20.84C113.895 20.84 114.884 20.4109 115.689 19.5527C116.517 18.6945 116.931 17.5232 116.931 16.0388Z" fill="#9B7DFF"/>
<path d="M133 0V25.7455H127.1V0H133Z" fill="#9B7DFF"/>
</g>
</svg>
